<svg width="146" height="146" viewBox="0 0 146 146" fill="none" xmlns="http://www.w3.org/2000/svg">
<path d="M0 5.03448C0 3.69925 0.530417 2.41871 1.47457 1.47457C2.41871 0.530417 3.69925 0 5.03448 0V5.03448H0Z" fill="#F9FFFF"/>
<path d="M5.03448 0H10.069V5.03448H5.03448V0Z" fill="#F9FFFF"/>
<path d="M10.069 0H15.1034V5.03448H10.069V0Z" fill="#F9FFFF"/>
<path d="M15.1034 0H20.1379V5.03448H15.1034V0Z" fill="#F9FFFF"/>
<path d="M20.1379 0H25.1724V5.03448H20.1379V0Z" fill="#F9FFFF"/>
<path d="M25.1724 0H30.2069V5.03448H25.1724V0Z" fill="#F9FFFF"/>
<path d="M30.2069 0C31.5421 0 32.8227 0.530417 33.7668 1.47457C34.711 2.41871 35.2414 3.69925 35.2414 5.03448H30.2069V0Z" fill="#F9FFFF"/>
<path d="M40.2759 2.51724C40.2759 1.84963 40.5411 1.20936 41.0131 0.737283C41.4852 0.265209 42.1255 0 42.7931 0C43.4607 0 44.101 0.265209 44.5731 0.737283C45.0451 1.20936 45.3103 1.84963 45.3103 2.51724V5.03448H40.2759V2.51724Z" fill="#F9FFFF"/>
<path d="M52.8621 0C53.5297 0 54.17 0.265209 54.642 0.737283C55.1141 1.20936 55.3793 1.84963 55.3793 2.51724C55.3793 3.18486 55.1141 3.82513 54.642 4.2972C54.17 4.76927 53.5297 5.03448 52.8621 5.03448C52.1945 5.03448 51.5542 4.76927 51.0821 4.2972C50.61 3.82513 50.3448 3.18486 50.3448 2.51724C50.3448 1.84963 50.61 1.20936 51.0821 0.737283C51.5542 0.265209 52.1945 0 52.8621 0Z" fill="#F9FFFF"/>
<path d="M73 0C72.3324 0 71.6921 0.265209 71.22 0.737283C70.748 1.20936 70.4828 1.84963 70.4828 2.51724C70.4828 3.18486 70.748 3.82513 71.22 4.2972C71.6921 4.76927 72.3324 5.03448 73 5.03448H75.5172V0H73Z" fill="#F9FFFF"/>
<path d="M78.0345 0C78.7021 0 79.3424 0.265209 79.8144 0.737283C80.2865 1.20936 80.5517 1.84963 80.5517 2.51724C80.5517 3.18486 80.2865 3.82513 79.8144 4.2972C79.3424 4.76927 78.7021 5.03448 78.0345 5.03448H75.5172V0H78.0345Z" fill="#F9FFFF"/>
<path d="M93.1379 0C93.8055 0 94.4458 0.265209 94.9179 0.737283C95.39 1.20936 95.6552 1.84963 95.6552 2.51724C95.6552 3.18486 95.39 3.82513 94.9179 4.2972C94.4458 4.76927 93.8055 5.03448 93.1379 5.03448C92.4703 5.03448 91.83 4.76927 91.358 4.2972C90.8859 3.82513 90.6207 3.18486 90.6207 2.51724C90.6207 1.84963 90.8859 1.20936 91.358 0.737283C91.83 0.265209 92.4703 0 93.1379 0Z" fill="#F9FFFF"/>
<path d="M103.207 0C103.875 0 104.515 0.265209 104.987 0.737283C105.459 1.20936 105.724 1.84963 105.724 2.51724C105.724 3.18486 105.459 3.82513 104.987 4.2972C104.515 4.76927 103.875 5.03448 103.207 5.03448C102.539 5.03448 101.899 4.76927 101.427 4.2972C100.955 3.82513 100.69 3.18486 100.69 2.51724C100.69 1.84963 100.955 1.20936 101.427 0.737283C101.899 0.265209 102.539 0 103.207 0Z" fill="#F9FFFF"/>
<path d="M110.759 5.03448C110.759 3.69925 111.289 2.41871 112.233 1.47457C113.177 0.530417 114.458 0 115.793 0V5.03448H110.759Z" fill="#F9FFFF"/>
<path d="M115.793 0H120.828V5.03448H115.793V0Z" fill="#F9FFFF"/>
<path d="M120.828 0H125.862V5.03448H120.828V0Z" fill="#F9FFFF"/>
<path d="M125.862 0H130.897V5.03448H125.862V0Z" fill="#F9FFFF"/>
<path d="M130.897 0H135.931V5.03448H130.897V0Z" fill="#F9FFFF"/>
<path d="M135.931 0H140.966V5.03448H135.931V0Z" fill="#F9FFFF"/>
<path d="M140.966 0C142.301 0 143.581 0.530417 144.525 1.47457C145.47 2.41871 146 3.69925 146 5.03448H140.966V0Z" fill="#F9FFFF"/>
<path d="M0 5.03448H5.03448V10.069H0V5.03448Z" fill="#F9FFFF"/>
<path d="M30.2069 5.03448H35.2414V10.069H30.2069V5.03448Z" fill="#F9FFFF"/>
<path d="M40.2759 5.03448H45.3103V10.069H40.2759V5.03448Z" fill="#F9FFFF"/>
<path d="M55.3793 10.069C55.3793 8.73374 55.9097 7.4532 56.8539 6.50905C57.798 5.5649 59.0786 5.03448 60.4138 5.03448V10.069H55.3793Z" fill="#F9FFFF"/>
<path d="M60.4138 5.03448H65.4483V10.069H60.4138V5.03448Z" fill="#F9FFFF"/>
<path d="M67.9655 5.03448C68.6331 5.03448 69.2734 5.29969 69.7455 5.77177C70.2175 6.24384 70.4828 6.88411 70.4828 7.55172C70.4828 8.21934 70.2175 8.85961 69.7455 9.33168C69.2734 9.80376 68.6331 10.069 67.9655 10.069H65.4483V5.03448H67.9655Z" fill="#F9FFFF"/>
<path d="M95.6552 7.55172C95.6552 6.88411 95.9204 6.24384 96.3924 5.77177C96.8645 5.29969 97.5048 5.03448 98.1724 5.03448C98.84 5.03448 99.4803 5.29969 99.9524 5.77177C100.424 6.24384 100.69 6.88411 100.69 7.55172V10.069H95.6552V7.55172Z" fill="#F9FFFF"/>
<path d="M110.759 5.03448H115.793V10.069H110.759V5.03448Z" fill="#F9FFFF"/>
<path d="M140.966 5.03448H146V10.069H140.966V5.03448Z" fill="#F9FFFF"/>
<path d="M0 10.069H5.03448V15.1034H0V10.069Z" fill="#F9FFFF"/>
<path d="M10.069 15.1034C10.069 13.7682 10.5994 12.4877 11.5435 11.5435C12.4877 10.5994 13.7682 10.069 15.1034 10.069V15.1034H10.069Z" fill="#F9FFFF"/>
<path d="M15.1034 10.069H20.1379V15.1034H15.1034V10.069Z" fill="#F9FFFF"/>
<path d="M20.1379 10.069C21.4732 10.069 22.7537 10.5994 23.6978 11.5435C24.642 12.4877 25.1724 13.7682 25.1724 15.1034H20.1379V10.069Z" fill="#F9FFFF"/>
<path d="M30.2069 10.069H35.2414V15.1034H30.2069V10.069Z" fill="#F9FFFF"/>
<path d="M40.2759 12.5862C40.2759 13.2538 40.5411 13.8941 41.0131 14.3662C41.4852 14.8382 42.1255 15.1034 42.7931 15.1034C43.4607 15.1034 44.101 14.8382 44.5731 14.3662C45.0451 13.8941 45.3103 13.2538 45.3103 12.5862V10.069H40.2759V12.5862Z" fill="#F9FFFF"/>
<path d="M52.8621 10.069C52.1945 10.069 51.5542 10.3342 51.0821 10.8062C50.61 11.2783 50.3448 11.9186 50.3448 12.5862C50.3448 13.2538 50.61 13.8941 51.0821 14.3662C51.5542 14.8382 52.1945 15.1034 52.8621 15.1034H55.3793V10.069H52.8621Z" fill="#F9FFFF"/>
<path d="M55.3793 10.069H60.4138V15.1034H55.3793V10.069Z" fill="#F9FFFF"/>
<path d="M60.4138 10.069H65.4483V15.1034H60.4138V10.069Z" fill="#F9FFFF"/>
<path d="M73 10.069C72.3324 10.069 71.6921 10.3342 71.22 10.8062C70.748 11.2783 70.4828 11.9186 70.4828 12.5862C70.4828 13.2538 70.748 13.8941 71.22 14.3662C71.6921 14.8382 72.3324 15.1034 73 15.1034H75.5172V10.069H73Z" fill="#F9FFFF"/>
<path d="M78.0345 10.069C78.7021 10.069 79.3424 10.3342 79.8144 10.8062C80.2865 11.2783 80.5517 11.9186 80.5517 12.5862C80.5517 13.2538 80.2865 13.8941 79.8144 14.3662C79.3424 14.8382 78.7021 15.1034 78.0345 15.1034H75.5172V10.069H78.0345Z" fill="#F9FFFF"/>
<path d="M95.6552 10.069H100.69V15.1034H95.6552V10.069Z" fill="#F9FFFF"/>
<path d="M103.207 10.069C103.875 10.069 104.515 10.3342 104.987 10.8062C105.459 11.2783 105.724 11.9186 105.724 12.5862C105.724 13.2538 105.459 13.8941 104.987 14.3662C104.515 14.8382 103.875 15.1034 103.207 15.1034H100.69V10.069H103.207Z" fill="#F9FFFF"/>
<path d="M110.759 10.069H115.793V15.1034H110.759V10.069Z" fill="#F9FFFF"/>
<path d="M120.828 15.1034C120.828 13.7682 121.358 12.4877 122.302 11.5435C123.246 10.5994 124.527 10.069 125.862 10.069V15.1034H120.828Z" fill="#F9FFFF"/>
<path d="M125.862 10.069H130.897V15.1034H125.862V10.069Z" fill="#F9FFFF"/>
<path d="M130.897 10.069C132.232 10.069 133.512 10.5994 134.456 11.5435C135.401 12.4877 135.931 13.7682 135.931 15.1034H130.897V10.069Z" fill="#F9FFFF"/>
<path d="M140.966 10.069H146V15.1034H140.966V10.069Z" fill="#F9FFFF"/>
<path d="M0 15.1034H5.03448V20.1379H0V15.1034Z" fill="#F9FFFF"/>
<path d="M10.069 15.1034H15.1034V20.1379H10.069V15.1034Z" fill="#F9FFFF"/>
<path d="M15.1034 15.1034H20.1379V20.1379H15.1034V15.1034Z" fill="#F9FFFF"/>
<path d="M20.1379 15.1034H25.1724V20.1379H20.1379V15.1034Z" fill="#F9FFFF"/>
<path d="M30.2069 15.1034H35.2414V20.1379H30.2069V15.1034Z" fill="#F9FFFF"/>
<path d="M47.8276 15.1034C48.4952 15.1034 49.1355 15.3687 49.6075 15.8407C50.0796 16.3128 50.3448 16.9531 50.3448 17.6207C50.3448 18.2883 50.0796 18.9286 49.6075 19.4006C49.1355 19.8727 48.4952 20.1379 47.8276 20.1379C47.16 20.1379 46.5197 19.8727 46.0476 19.4006C45.5756 18.9286 45.3103 18.2883 45.3103 17.6207C45.3103 16.9531 45.5756 16.3128 46.0476 15.8407C46.5197 15.3687 47.16 15.1034 47.8276 15.1034Z" fill="#F9FFFF"/>
<path d="M60.4138 15.1034H65.4483V20.1379H60.4138V15.1034Z" fill="#F9FFFF"/>
<path d="M80.5517 20.1379C80.5517 18.8027 81.0821 17.5222 82.0263 16.578C82.9704 15.6339 84.251 15.1034 85.5862 15.1034V20.1379H80.5517Z" fill="#F9FFFF"/>
<path d="M88.1034 15.1034C88.7711 15.1034 89.4113 15.3687 89.8834 15.8407C90.3555 16.3128 90.6207 16.9531 90.6207 17.6207C90.6207 18.2883 90.3555 18.9286 89.8834 19.4006C89.4113 19.8727 88.7711 20.1379 88.1034 20.1379H85.5862V15.1034H88.1034Z" fill="#F9FFFF"/>
<path d="M95.6552 15.1034H100.69V20.1379H95.6552V15.1034Z" fill="#F9FFFF"/>
<path d="M110.759 15.1034H115.793V20.1379H110.759V15.1034Z" fill="#F9FFFF"/>
<path d="M120.828 15.1034H125.862V20.1379H120.828V15.1034Z" fill="#F9FFFF"/>
<path d="M125.862 15.1034H130.897V20.1379H125.862V15.1034Z" fill="#F9FFFF"/>
<path d="M130.897 15.1034H135.931V20.1379H130.897V15.1034Z" fill="#F9FFFF"/>
<path d="M140.966 15.1034H146V20.1379H140.966V15.1034Z" fill="#F9FFFF"/>
<path d="M0 20.1379H5.03448V25.1724H0V20.1379Z" fill="#F9FFFF"/>
<path d="M10.069 20.1379C10.069 21.4732 10.5994 22.7537 11.5435 23.6978C12.4877 24.642 13.7682 25.1724 15.1034 25.1724V20.1379H10.069Z" fill="#F9FFFF"/>
<path d="M15.1034 20.1379H20.1379V25.1724H15.1034V20.1379Z" fill="#F9FFFF"/>
<path d="M20.1379 25.1724C21.4732 25.1724 22.7537 24.642 23.6978 23.6978C24.642 22.7537 25.1724 21.4732 25.1724 20.1379H20.1379V25.1724Z" fill="#F9FFFF"/>
<path d="M30.2069 20.1379H35.2414V25.1724H30.2069V20.1379Z" fill="#F9FFFF"/>
<path d="M52.8621 20.1379C53.5297 20.1379 54.17 20.4031 54.642 20.8752C55.1141 21.3473 55.3793 21.9876 55.3793 22.6552C55.3793 23.3228 55.1141 23.9631 54.642 24.4351C54.17 24.9072 53.5297 25.1724 52.8621 25.1724C52.1945 25.1724 51.5542 24.9072 51.0821 24.4351C50.61 23.9631 50.3448 23.3228 50.3448 22.6552C50.3448 21.9876 50.61 21.3473 51.0821 20.8752C51.5542 20.4031 52.1945 20.1379 52.8621 20.1379Z" fill="#F9FFFF"/>
<path d="M60.4138 20.1379C60.4138 21.4732 60.9442 22.7537 61.8884 23.6978C62.8325 24.642 64.113 25.1724 65.4483 25.1724V20.1379H60.4138Z" fill="#F9FFFF"/>
<path d="M65.4483 20.1379H70.4828V25.1724H65.4483V20.1379Z" fill="#F9FFFF"/>
<path d="M73 20.1379C73.6676 20.1379 74.3079 20.4031 74.78 20.8752C75.252 21.3473 75.5172 21.9876 75.5172 22.6552C75.5172 23.3228 75.252 23.9631 74.78 24.4351C74.3079 24.9072 73.6676 25.1724 73 25.1724H70.4828V20.1379H73Z" fill="#F9FFFF"/>
<path d="M80.5517 22.6552C80.5517 23.3228 80.8169 23.9631 81.289 24.4351C81.7611 24.9072 82.4013 25.1724 83.069 25.1724C83.7366 25.1724 84.3768 24.9072 84.8489 24.4351C85.321 23.9631 85.5862 23.3228 85.5862 22.6552V20.1379H80.5517V22.6552Z" fill="#F9FFFF"/>
<path d="M90.6207 25.1724C90.6207 23.8372 91.1511 22.5566 92.0953 21.6125C93.0394 20.6683 94.3199 20.1379 95.6552 20.1379V25.1724H90.6207Z" fill="#F9FFFF"/>
<path d="M95.6552 20.1379H100.69V25.1724H95.6552V20.1379Z" fill="#F9FFFF"/>
<path d="M100.69 20.1379C102.025 20.1379 103.305 20.6683 104.25 21.6125C105.194 22.5566 105.724 23.8372 105.724 25.1724H100.69V20.1379Z" fill="#F9FFFF"/>
<path d="M110.759 20.1379H115.793V25.1724H110.759V20.1379Z" fill="#F9FFFF"/>
<path d="M120.828 20.1379C120.828 21.4732 121.358 22.7537 122.302 23.6978C123.246 24.642 124.527 25.1724 125.862 25.1724V20.1379H120.828Z" fill="#F9FFFF"/>
<path d="M125.862 20.1379H130.897V25.1724H125.862V20.1379Z" fill="#F9FFFF"/>
<path d="M130.897 25.1724C132.232 25.1724 133.512 24.642 134.456 23.6978C135.401 22.7537 135.931 21.4732 135.931 20.1379H130.897V25.1724Z" fill="#F9FFFF"/>
<path d="M140.966 20.1379H146V25.1724H140.966V20.1379Z" fill="#F9FFFF"/>
<path d="M0 25.1724H5.03448V30.2069H0V25.1724Z" fill="#F9FFFF"/>
<path d="M30.2069 25.1724H35.2414V30.2069H30.2069V25.1724Z" fill="#F9FFFF"/>
<path d="M40.2759 30.2069C40.2759 28.8717 40.8063 27.5911 41.7504 26.647C42.6946 25.7028 43.9751 25.1724 45.3103 25.1724V30.2069H40.2759Z" fill="#F9FFFF"/>
<path d="M47.8276 25.1724C48.4952 25.1724 49.1355 25.4376 49.6075 25.9097C50.0796 26.3818 50.3448 27.022 50.3448 27.6897C50.3448 28.3573 50.0796 28.9975 49.6075 29.4696C49.1355 29.9417 48.4952 30.2069 47.8276 30.2069H45.3103V25.1724H47.8276Z" fill="#F9FFFF"/>
<path d="M57.8965 25.1724C58.5642 25.1724 59.2044 25.4376 59.6765 25.9097C60.1486 26.3818 60.4138 27.022 60.4138 27.6897C60.4138 28.3573 60.1486 28.9975 59.6765 29.4696C59.2044 29.9417 58.5642 30.2069 57.8965 30.2069C57.2289 30.2069 56.5887 29.9417 56.1166 29.4696C55.6445 28.9975 55.3793 28.3573 55.3793 27.6897C55.3793 27.022 55.6445 26.3818 56.1166 25.9097C56.5887 25.4376 57.2289 25.1724 57.8965 25.1724Z" fill="#F9FFFF"/>
<path d="M78.0345 25.1724C78.7021 25.1724 79.3424 25.4376 79.8144 25.9097C80.2865 26.3818 80.5517 27.022 80.5517 27.6897C80.5517 28.3573 80.2865 28.9975 79.8144 29.4696C79.3424 29.9417 78.7021 30.2069 78.0345 30.2069C77.3669 30.2069 76.7266 29.9417 76.2545 29.4696C75.7824 28.9975 75.5172 28.3573 75.5172 27.6897C75.5172 27.022 75.7824 26.3818 76.2545 25.9097C76.7266 25.4376 77.3669 25.1724 78.0345 25.1724Z" fill="#F9FFFF"/>
<path d="M90.6207 25.1724H95.6552V30.2069H90.6207V25.1724Z" fill="#F9FFFF"/>
<path d="M100.69 25.1724H105.724V30.2069H100.69V25.1724Z" fill="#F9FFFF"/>
<path d="M110.759 25.1724H115.793V30.2069H110.759V25.1724Z" fill="#F9FFFF"/>
<path d="M140.966 25.1724H146V30.2069H140.966V25.1724Z" fill="#F9FFFF"/>
<path d="M0 30.2069C0 31.5421 0.530417 32.8227 1.47457 33.7668C2.41871 34.711 3.69925 35.2414 5.03448 35.2414V30.2069H0Z" fill="#F9FFFF"/>
<path d="M5.03448 30.2069H10.069V35.2414H5.03448V30.2069Z" fill="#F9FFFF"/>
<path d="M10.069 30.2069H15.1034V35.2414H10.069V30.2069Z" fill="#F9FFFF"/>
<path d="M15.1034 30.2069H20.1379V35.2414H15.1034V30.2069Z" fill="#F9FFFF"/>
<path d="M20.1379 30.2069H25.1724V35.2414H20.1379V30.2069Z" fill="#F9FFFF"/>
<path d="M25.1724 30.2069H30.2069V35.2414H25.1724V30.2069Z" fill="#F9FFFF"/>
<path d="M30.2069 35.2414C31.5421 35.2414 32.8227 34.711 33.7668 33.7668C34.711 32.8227 35.2414 31.5421 35.2414 30.2069H30.2069V35.2414Z" fill="#F9FFFF"/>
<path d="M40.2759 30.2069H45.3103V35.2414H40.2759V30.2069Z" fill="#F9FFFF"/>
<path d="M52.8621 30.2069C53.5297 30.2069 54.17 30.4721 54.642 30.9442C55.1141 31.4163 55.3793 32.0565 55.3793 32.7241C55.3793 33.3918 55.1141 34.032 54.642 34.5041C54.17 34.9762 53.5297 35.2414 52.8621 35.2414C52.1945 35.2414 51.5542 34.9762 51.0821 34.5041C50.61 34.032 50.3448 33.3918 50.3448 32.7241C50.3448 32.0565 50.61 31.4163 51.0821 30.9442C51.5542 30.4721 52.1945 30.2069 52.8621 30.2069Z" fill="#F9FFFF"/>
<path d="M60.4138 32.7241C60.4138 32.0565 60.679 31.4163 61.1511 30.9442C61.6231 30.4721 62.2634 30.2069 62.931 30.2069C63.5986 30.2069 64.2389 30.4721 64.711 30.9442C65.1831 31.4163 65.4483 32.0565 65.4483 32.7241V35.2414H60.4138V32.7241Z" fill="#F9FFFF"/>
<path d="M70.4828 32.7241C70.4828 32.0565 70.748 31.4163 71.22 30.9442C71.6921 30.4721 72.3324 30.2069 73 30.2069C73.6676 30.2069 74.3079 30.4721 74.78 30.9442C75.252 31.4163 75.5172 32.0565 75.5172 32.7241V35.2414H70.4828V32.7241Z" fill="#F9FFFF"/>
<path d="M80.5517 32.7241C80.5517 32.0565 80.8169 31.4163 81.289 30.9442C81.7611 30.4721 82.4013 30.2069 83.069 30.2069C83.7366 30.2069 84.3768 30.4721 84.8489 30.9442C85.321 31.4163 85.5862 32.0565 85.5862 32.7241V35.2414H80.5517V32.7241Z" fill="#F9FFFF"/>
<path d="M90.6207 32.7241C90.6207 33.3918 90.8859 34.032 91.358 34.5041C91.83 34.9762 92.4703 35.2414 93.1379 35.2414C93.8055 35.2414 94.4458 34.9762 94.9179 34.5041C95.39 34.032 95.6552 33.3918 95.6552 32.7241V30.2069H90.6207V32.7241Z" fill="#F9FFFF"/>
<path d="M100.69 32.7241C100.69 33.3918 100.955 34.032 101.427 34.5041C101.899 34.9762 102.539 35.2414 103.207 35.2414C103.875 35.2414 104.515 34.9762 104.987 34.5041C105.459 34.032 105.724 33.3918 105.724 32.7241V30.2069H100.69V32.7241Z" fill="#F9FFFF"/>
<path d="M110.759 30.2069C110.759 31.5421 111.289 32.8227 112.233 33.7668C113.177 34.711 114.458 35.2414 115.793 35.2414V30.2069H110.759Z" fill="#F9FFFF"/>
<path d="M115.793 30.2069H120.828V35.2414H115.793V30.2069Z" fill="#F9FFFF"/>
<path d="M120.828 30.2069H125.862V35.2414H120.828V30.2069Z" fill="#F9FFFF"/>
<path d="M125.862 30.2069H130.897V35.2414H125.862V30.2069Z" fill="#F9FFFF"/>
<path d="M130.897 30.2069H135.931V35.2414H130.897V30.2069Z" fill="#F9FFFF"/>
<path d="M135.931 30.2069H140.966V35.2414H135.931V30.2069Z" fill="#F9FFFF"/>
<path d="M140.966 35.2414C142.301 35.2414 143.581 34.711 144.525 33.7668C145.47 32.8227 146 31.5421 146 30.2069H140.966V35.2414Z" fill="#F9FFFF"/>
<path d="M40.2759 35.2414H45.3103V40.2759H40.2759V35.2414Z" fill="#F9FFFF"/>
<path d="M57.8965 35.2414C57.2289 35.2414 56.5887 35.5066 56.1166 35.9787C55.6445 36.4507 55.3793 37.091 55.3793 37.7586C55.3793 38.4262 55.6445 39.0665 56.1166 39.5386C56.5887 40.0107 57.2289 40.2759 57.8965 40.2759H60.4138V35.2414H57.8965Z" fill="#F9FFFF"/>
<path d="M60.4138 35.2414H65.4483V40.2759H60.4138V35.2414Z" fill="#F9FFFF"/>
<path d="M70.4828 37.7586C70.4828 38.4262 70.748 39.0665 71.22 39.5386C71.6921 40.0107 72.3324 40.2759 73 40.2759C73.6676 40.2759 74.3079 40.0107 74.78 39.5386C75.252 39.0665 75.5172 38.4262 75.5172 37.7586V35.2414H70.4828V37.7586Z" fill="#F9FFFF"/>
<path d="M80.5517 35.2414H85.5862V40.2759H80.5517V35.2414Z" fill="#F9FFFF"/>
<path d="M10.069 45.3103C10.069 43.9751 10.5994 42.6946 11.5435 41.7504C12.4877 40.8063 13.7682 40.2759 15.1034 40.2759V45.3103H10.069Z" fill="#F9FFFF"/>
<path d="M15.1034 40.2759H20.1379V45.3103H15.1034V40.2759Z" fill="#F9FFFF"/>
<path d="M20.1379 40.2759C21.4732 40.2759 22.7537 40.8063 23.6978 41.7504C24.642 42.6946 25.1724 43.9751 25.1724 45.3103H20.1379V40.2759Z" fill="#F9FFFF"/>
<path d="M32.7241 40.2759C33.3918 40.2759 34.032 40.5411 34.5041 41.0131C34.9762 41.4852 35.2414 42.1255 35.2414 42.7931C35.2414 43.4607 34.9762 44.101 34.5041 44.5731C34.032 45.0451 33.3918 45.3103 32.7241 45.3103C32.0565 45.3103 31.4163 45.0451 30.9442 44.5731C30.4721 44.101 30.2069 43.4607 30.2069 42.7931C30.2069 42.1255 30.4721 41.4852 30.9442 41.0131C31.4163 40.5411 32.0565 40.2759 32.7241 40.2759Z" fill="#F9FFFF"/>
<path d="M40.2759 40.2759C40.2759 41.6111 40.8063 42.8916 41.7504 43.8358C42.6946 44.7799 43.9751 45.3103 45.3103 45.3103V40.2759H40.2759Z" fill="#F9FFFF"/>
<path d="M45.3103 40.2759C46.6456 40.2759 47.9261 40.8063 48.8703 41.7504C49.8144 42.6946 50.3448 43.9751 50.3448 45.3103H45.3103V40.2759Z" fill="#F9FFFF"/>
<path d="M60.4138 40.2759H65.4483V45.3103H60.4138V40.2759Z" fill="#F9FFFF"/>
<path d="M67.9655 40.2759C68.6331 40.2759 69.2734 40.5411 69.7455 41.0131C70.2175 41.4852 70.4828 42.1255 70.4828 42.7931C70.4828 43.4607 70.2175 44.101 69.7455 44.5731C69.2734 45.0451 68.6331 45.3103 67.9655 45.3103H65.4483V40.2759H67.9655Z" fill="#F9FFFF"/>
<path d="M78.0345 40.2759C77.3669 40.2759 76.7266 40.5411 76.2545 41.0131C75.7824 41.4852 75.5172 42.1255 75.5172 42.7931C75.5172 43.4607 75.7824 44.101 76.2545 44.5731C76.7266 45.0451 77.3669 45.3103 78.0345 45.3103H80.5517V40.2759H78.0345Z" fill="#F9FFFF"/>
<path d="M80.5517 40.2759H85.5862V45.3103H80.5517V40.2759Z" fill="#F9FFFF"/>
<path d="M93.1379 40.2759C92.4703 40.2759 91.83 40.5411 91.358 41.0131C90.8859 41.4852 90.6207 42.1255 90.6207 42.7931C90.6207 43.4607 90.8859 44.101 91.358 44.5731C91.83 45.0451 92.4703 45.3103 93.1379 45.3103H95.6552V40.2759H93.1379Z" fill="#F9FFFF"/>
<path d="M95.6552 40.2759H100.69V45.3103H95.6552V40.2759Z" fill="#F9FFFF"/>
<path d="M100.69 40.2759H105.724V45.3103H100.69V40.2759Z" fill="#F9FFFF"/>
<path d="M105.724 40.2759H110.759V45.3103H105.724V40.2759Z" fill="#F9FFFF"/>
<path d="M110.759 40.2759H115.793V45.3103H110.759V40.2759Z" fill="#F9FFFF"/>
<path d="M115.793 40.2759C117.128 40.2759 118.409 40.8063 119.353 41.7504C120.297 42.6946 120.828 43.9751 120.828 45.3103H115.793V40.2759Z" fill="#F9FFFF"/>
<path d="M133.414 40.2759C132.746 40.2759 132.106 40.5411 131.634 41.0131C131.162 41.4852 130.897 42.1255 130.897 42.7931C130.897 43.4607 131.162 44.101 131.634 44.5731C132.106 45.0451 132.746 45.3103 133.414 45.3103H135.931V40.2759H133.414Z" fill="#F9FFFF"/>
<path d="M135.931 40.2759H140.966V45.3103H135.931V40.2759Z" fill="#F9FFFF"/>
<path d="M140.966 40.2759C142.301 40.2759 143.581 40.8063 144.525 41.7504C145.47 42.6946 146 43.9751 146 45.3103H140.966V40.2759Z" fill="#F9FFFF"/>
<path d="M10.069 45.3103H15.1034V50.3448H10.069V45.3103Z" fill="#F9FFFF"/>
<path d="M15.1034 45.3103H20.1379V50.3448H15.1034V45.3103Z" fill="#F9FFFF"/>
<path d="M20.1379 45.3103H25.1724V50.3448H20.1379V45.3103Z" fill="#F9FFFF"/>
<path d="M27.6897 45.3103C28.3573 45.3103 28.9975 45.5756 29.4696 46.0476C29.9417 46.5197 30.2069 47.16 30.2069 47.8276C30.2069 48.4952 29.9417 49.1355 29.4696 49.6075C28.9975 50.0796 28.3573 50.3448 27.6897 50.3448H25.1724V45.3103H27.6897Z" fill="#F9FFFF"/>
<path d="M45.3103 47.8276C45.3103 48.4952 45.5756 49.1355 46.0476 49.6075C46.5197 50.0796 47.16 50.3448 47.8276 50.3448C48.4952 50.3448 49.1355 50.0796 49.6075 49.6075C50.0796 49.1355 50.3448 48.4952 50.3448 47.8276V45.3103H45.3103V47.8276Z" fill="#F9FFFF"/>
<path d="M57.8965 45.3103C57.2289 45.3103 56.5887 45.5756 56.1166 46.0476C55.6445 46.5197 55.3793 47.16 55.3793 47.8276C55.3793 48.4952 55.6445 49.1355 56.1166 49.6075C56.5887 50.0796 57.2289 50.3448 57.8965 50.3448H60.4138V45.3103H57.8965Z" fill="#F9FFFF"/>
<path d="M60.4138 50.3448C61.749 50.3448 63.0296 49.8144 63.9737 48.8703C64.9179 47.9261 65.4483 46.6456 65.4483 45.3103H60.4138V50.3448Z" fill="#F9FFFF"/>
<path d="M70.4828 47.8276C70.4828 47.16 70.748 46.5197 71.22 46.0476C71.6921 45.5756 72.3324 45.3103 73 45.3103C73.6676 45.3103 74.3079 45.5756 74.78 46.0476C75.252 46.5197 75.5172 47.16 75.5172 47.8276V50.3448H70.4828V47.8276Z" fill="#F9FFFF"/>
<path d="M80.5517 45.3103C80.5517 46.6456 81.0821 47.9261 82.0263 48.8703C82.9704 49.8144 84.251 50.3448 85.5862 50.3448V45.3103H80.5517Z" fill="#F9FFFF"/>
<path d="M88.1034 45.3103C88.7711 45.3103 89.4113 45.5756 89.8834 46.0476C90.3555 46.5197 90.6207 47.16 90.6207 47.8276C90.6207 48.4952 90.3555 49.1355 89.8834 49.6075C89.4113 50.0796 88.7711 50.3448 88.1034 50.3448H85.5862V45.3103H88.1034Z" fill="#F9FFFF"/>
<path d="M105.724 45.3103C105.724 46.6456 106.255 47.9261 107.199 48.8703C108.143 49.8144 109.423 50.3448 110.759 50.3448V45.3103H105.724Z" fill="#F9FFFF"/>
<path d="M110.759 45.3103H115.793V50.3448H110.759V45.3103Z" fill="#F9FFFF"/>
<path d="M115.793 45.3103H120.828V50.3448H115.793V45.3103Z" fill="#F9FFFF"/>
<path d="M120.828 45.3103C122.163 45.3103 123.443 45.8408 124.387 46.7849C125.332 47.7291 125.862 49.0096 125.862 50.3448H120.828V45.3103Z" fill="#F9FFFF"/>
<path d="M135.931 45.3103H140.966V50.3448H135.931V45.3103Z" fill="#F9FFFF"/>
<path d="M140.966 50.3448C142.301 50.3448 143.581 49.8144 144.525 48.8703C145.47 47.9261 146 46.6456 146 45.3103H140.966V50.3448Z" fill="#F9FFFF"/>
<path d="M5.03448 55.3793C5.03448 54.0441 5.5649 52.7635 6.50905 51.8194C7.4532 50.8752 8.73374 50.3448 10.069 50.3448V55.3793H5.03448Z" fill="#F9FFFF"/>
<path d="M10.069 50.3448H15.1034V55.3793H10.069V50.3448Z" fill="#F9FFFF"/>
<path d="M15.1034 50.3448H20.1379V55.3793H15.1034V50.3448Z" fill="#F9FFFF"/>
<path d="M20.1379 50.3448H25.1724V55.3793H20.1379V50.3448Z" fill="#F9FFFF"/>
<path d="M32.7241 50.3448C32.0565 50.3448 31.4163 50.61 30.9442 51.0821C30.4721 51.5542 30.2069 52.1945 30.2069 52.8621C30.2069 53.5297 30.4721 54.17 30.9442 54.642C31.4163 55.1141 32.0565 55.3793 32.7241 55.3793H35.2414V50.3448H32.7241Z" fill="#F9FFFF"/>
<path d="M35.2414 50.3448H40.2759V55.3793H35.2414V50.3448Z" fill="#F9FFFF"/>
<path d="M42.7931 50.3448C43.4607 50.3448 44.101 50.61 44.5731 51.0821C45.0451 51.5542 45.3103 52.1945 45.3103 52.8621C45.3103 53.5297 45.0451 54.17 44.5731 54.642C44.101 55.1141 43.4607 55.3793 42.7931 55.3793H40.2759V50.3448H42.7931Z" fill="#F9FFFF"/>
<path d="M52.8621 50.3448C53.5297 50.3448 54.17 50.61 54.642 51.0821C55.1141 51.5542 55.3793 52.1945 55.3793 52.8621C55.3793 53.5297 55.1141 54.17 54.642 54.642C54.17 55.1141 53.5297 55.3793 52.8621 55.3793C52.1945 55.3793 51.5542 55.1141 51.0821 54.642C50.61 54.17 50.3448 53.5297 50.3448 52.8621C50.3448 52.1945 50.61 51.5542 51.0821 51.0821C51.5542 50.61 52.1945 50.3448 52.8621 50.3448Z" fill="#F9FFFF"/>
<path d="M67.9655 50.3448C67.2979 50.3448 66.6576 50.61 66.1856 51.0821C65.7135 51.5542 65.4483 52.1945 65.4483 52.8621C65.4483 53.5297 65.7135 54.17 66.1856 54.642C66.6576 55.1141 67.2979 55.3793 67.9655 55.3793H70.4828V50.3448H67.9655Z" fill="#F9FFFF"/>
<path d="M70.4828 50.3448H75.5172V55.3793H70.4828V50.3448Z" fill="#F9FFFF"/>
<path d="M75.5172 50.3448C76.8525 50.3448 78.133 50.8752 79.0771 51.8194C80.0213 52.7635 80.5517 54.0441 80.5517 55.3793H75.5172V50.3448Z" fill="#F9FFFF"/>
<path d="M103.207 50.3448C103.875 50.3448 104.515 50.61 104.987 51.0821C105.459 51.5542 105.724 52.1945 105.724 52.8621C105.724 53.5297 105.459 54.17 104.987 54.642C104.515 55.1141 103.875 55.3793 103.207 55.3793C102.539 55.3793 101.899 55.1141 101.427 54.642C100.955 54.17 100.69 53.5297 100.69 52.8621C100.69 52.1945 100.955 51.5542 101.427 51.0821C101.899 50.61 102.539 50.3448 103.207 50.3448Z" fill="#F9FFFF"/>
<path d="M110.759 50.3448C110.759 51.6801 111.289 52.9606 112.233 53.9047C113.177 54.8489 114.458 55.3793 115.793 55.3793V50.3448H110.759Z" fill="#F9FFFF"/>
<path d="M115.793 50.3448H120.828V55.3793H115.793V50.3448Z" fill="#F9FFFF"/>
<path d="M120.828 50.3448H125.862V55.3793H120.828V50.3448Z" fill="#F9FFFF"/>
<path d="M125.862 50.3448H130.897V55.3793H125.862V50.3448Z" fill="#F9FFFF"/>
<path d="M130.897 50.3448H135.931V55.3793H130.897V50.3448Z" fill="#F9FFFF"/>
<path d="M135.931 50.3448H140.966V55.3793H135.931V50.3448Z" fill="#F9FFFF"/>
<path d="M0 60.4138C0 59.0786 0.530417 57.798 1.47457 56.8539C2.41871 55.9097 3.69925 55.3793 5.03448 55.3793V60.4138H0Z" fill="#F9FFFF"/>
<path d="M5.03448 55.3793H10.069V60.4138H5.03448V55.3793Z" fill="#F9FFFF"/>
<path d="M10.069 55.3793H15.1034V60.4138H10.069V55.3793Z" fill="#F9FFFF"/>
<path d="M15.1034 55.3793H20.1379V60.4138H15.1034V55.3793Z" fill="#F9FFFF"/>
<path d="M20.1379 55.3793H25.1724V60.4138H20.1379V55.3793Z" fill="#F9FFFF"/>
<path d="M57.8965 55.3793C58.5642 55.3793 59.2044 55.6445 59.6765 56.1166C60.1486 56.5887 60.4138 57.2289 60.4138 57.8965C60.4138 58.5642 60.1486 59.2044 59.6765 59.6765C59.2044 60.1486 58.5642 60.4138 57.8965 60.4138C57.2289 60.4138 56.5887 60.1486 56.1166 59.6765C55.6445 59.2044 55.3793 58.5642 55.3793 57.8965C55.3793 57.2289 55.6445 56.5887 56.1166 56.1166C56.5887 55.6445 57.2289 55.3793 57.8965 55.3793Z" fill="#F9FFFF"/>
<path d="M70.4828 55.3793H75.5172V60.4138H70.4828V55.3793Z" fill="#F9FFFF"/>
<path d="M75.5172 60.4138C76.8525 60.4138 78.133 59.8834 79.0771 58.9392C80.0213 57.9951 80.5517 56.7145 80.5517 55.3793H75.5172V60.4138Z" fill="#F9FFFF"/>
<path d="M125.862 57.8965C125.862 58.5642 126.127 59.2044 126.599 59.6765C127.071 60.1486 127.712 60.4138 128.379 60.4138C129.047 60.4138 129.687 60.1486 130.159 59.6765C130.631 59.2044 130.897 58.5642 130.897 57.8965V55.3793H125.862V57.8965Z" fill="#F9FFFF"/>
<path d="M135.931 57.8965C135.931 58.5642 136.196 59.2044 136.668 59.6765C137.14 60.1486 137.781 60.4138 138.448 60.4138C139.116 60.4138 139.756 60.1486 140.228 59.6765C140.7 59.2044 140.966 58.5642 140.966 57.8965V55.3793H135.931V57.8965Z" fill="#F9FFFF"/>
<path d="M0 60.4138H5.03448V65.4483H0V60.4138Z" fill="#F9FFFF"/>
<path d="M20.1379 60.4138H25.1724V65.4483H20.1379V60.4138Z" fill="#F9FFFF"/>
<path d="M25.1724 60.4138H30.2069V65.4483H25.1724V60.4138Z" fill="#F9FFFF"/>
<path d="M30.2069 60.4138H35.2414V65.4483H30.2069V60.4138Z" fill="#F9FFFF"/>
<path d="M37.7586 60.4138C38.4262 60.4138 39.0665 60.679 39.5386 61.1511C40.0107 61.6231 40.2759 62.2634 40.2759 62.931C40.2759 63.5986 40.0107 64.2389 39.5386 64.711C39.0665 65.1831 38.4262 65.4483 37.7586 65.4483H35.2414V60.4138H37.7586Z" fill="#F9FFFF"/>
<path d="M45.3103 65.4483C45.3103 64.113 45.8408 62.8325 46.7849 61.8884C47.7291 60.9442 49.0096 60.4138 50.3448 60.4138V65.4483H45.3103Z" fill="#F9FFFF"/>
<path d="M50.3448 60.4138C51.6801 60.4138 52.9606 60.9442 53.9047 61.8884C54.8489 62.8325 55.3793 64.113 55.3793 65.4483H50.3448V60.4138Z" fill="#F9FFFF"/>
<path d="M60.4138 65.4483C60.4138 64.113 60.9442 62.8325 61.8884 61.8884C62.8325 60.9442 64.113 60.4138 65.4483 60.4138V65.4483H60.4138Z" fill="#F9FFFF"/>
<path d="M65.4483 60.4138H70.4828V65.4483H65.4483V60.4138Z" fill="#F9FFFF"/>
<path d="M70.4828 65.4483C71.818 65.4483 73.0985 64.9179 74.0427 63.9737C74.9868 63.0296 75.5172 61.749 75.5172 60.4138H70.4828V65.4483Z" fill="#F9FFFF"/>
<path d="M120.828 62.931C120.828 62.2634 121.093 61.6231 121.565 61.1511C122.037 60.679 122.677 60.4138 123.345 60.4138C124.012 60.4138 124.653 60.679 125.125 61.1511C125.597 61.6231 125.862 62.2634 125.862 62.931V65.4483H120.828V62.931Z" fill="#F9FFFF"/>
<path d="M130.897 62.931C130.897 62.2634 131.162 61.6231 131.634 61.1511C132.106 60.679 132.746 60.4138 133.414 60.4138C134.081 60.4138 134.722 60.679 135.194 61.1511C135.666 61.6231 135.931 62.2634 135.931 62.931V65.4483H130.897V62.931Z" fill="#F9FFFF"/>
<path d="M0 65.4483H5.03448V70.4828H0V65.4483Z" fill="#F9FFFF"/>
<path d="M10.069 67.9655C10.069 67.2979 10.3342 66.6576 10.8062 66.1856C11.2783 65.7135 11.9186 65.4483 12.5862 65.4483C13.2538 65.4483 13.8941 65.7135 14.3662 66.1856C14.8382 66.6576 15.1034 67.2979 15.1034 67.9655V70.4828H10.069V67.9655Z" fill="#F9FFFF"/>
<path d="M20.1379 67.9655C20.1379 68.6331 20.4031 69.2734 20.8752 69.7455C21.3473 70.2175 21.9876 70.4828 22.6552 70.4828C23.3228 70.4828 23.9631 70.2175 24.4351 69.7455C24.9072 69.2734 25.1724 68.6331 25.1724 67.9655V65.4483H20.1379V67.9655Z" fill="#F9FFFF"/>
<path d="M45.3103 65.4483H50.3448V70.4828H45.3103V65.4483Z" fill="#F9FFFF"/>
<path d="M50.3448 65.4483H55.3793V70.4828H50.3448V65.4483Z" fill="#F9FFFF"/>
<path d="M60.4138 65.4483C60.4138 66.7835 60.9442 68.064 61.8884 69.0082C62.8325 69.9523 64.113 70.4828 65.4483 70.4828V65.4483H60.4138Z" fill="#F9FFFF"/>
<path d="M65.4483 70.4828C66.7835 70.4828 68.064 69.9523 69.0082 69.0082C69.9523 68.064 70.4828 66.7835 70.4828 65.4483H65.4483V70.4828Z" fill="#F9FFFF"/>
<path d="M78.0345 65.4483C78.7021 65.4483 79.3424 65.7135 79.8144 66.1856C80.2865 66.6576 80.5517 67.2979 80.5517 67.9655C80.5517 68.6331 80.2865 69.2734 79.8144 69.7455C79.3424 70.2175 78.7021 70.4828 78.0345 70.4828C77.3669 70.4828 76.7266 70.2175 76.2545 69.7455C75.7824 69.2734 75.5172 68.6331 75.5172 67.9655C75.5172 67.2979 75.7824 66.6576 76.2545 66.1856C76.7266 65.7135 77.3669 65.4483 78.0345 65.4483Z" fill="#F9FFFF"/>
<path d="M88.1034 65.4483C88.7711 65.4483 89.4113 65.7135 89.8834 66.1856C90.3555 66.6576 90.6207 67.2979 90.6207 67.9655C90.6207 68.6331 90.3555 69.2734 89.8834 69.7455C89.4113 70.2175 88.7711 70.4828 88.1034 70.4828C87.4358 70.4828 86.7956 70.2175 86.3235 69.7455C85.8514 69.2734 85.5862 68.6331 85.5862 67.9655C85.5862 67.2979 85.8514 66.6576 86.3235 66.1856C86.7956 65.7135 87.4358 65.4483 88.1034 65.4483Z" fill="#F9FFFF"/>
<path d="M98.1724 65.4483C97.5048 65.4483 96.8645 65.7135 96.3924 66.1856C95.9204 66.6576 95.6552 67.2979 95.6552 67.9655C95.6552 68.6331 95.9204 69.2734 96.3924 69.7455C96.8645 70.2175 97.5048 70.4828 98.1724 70.4828H100.69V65.4483H98.1724Z" fill="#F9FFFF"/>
<path d="M100.69 65.4483H105.724V70.4828H100.69V65.4483Z" fill="#F9FFFF"/>
<path d="M105.724 65.4483H110.759V70.4828H105.724V65.4483Z" fill="#F9FFFF"/>
<path d="M110.759 65.4483H115.793V70.4828H110.759V65.4483Z" fill="#F9FFFF"/>
<path d="M115.793 65.4483H120.828V70.4828H115.793V65.4483Z" fill="#F9FFFF"/>
<path d="M120.828 65.4483H125.862V70.4828H120.828V65.4483Z" fill="#F9FFFF"/>
<path d="M125.862 65.4483H130.897V70.4828H125.862V65.4483Z" fill="#F9FFFF"/>
<path d="M130.897 65.4483H135.931V70.4828H130.897V65.4483Z" fill="#F9FFFF"/>
<path d="M0 70.4828C0 71.818 0.530417 73.0985 1.47457 74.0427C2.41871 74.9868 3.69925 75.5172 5.03448 75.5172V70.4828H0Z" fill="#F9FFFF"/>
<path d="M5.03448 70.4828H10.069V75.5172H5.03448V70.4828Z" fill="#F9FFFF"/>
<path d="M10.069 70.4828H15.1034V75.5172H10.069V70.4828Z" fill="#F9FFFF"/>
<path d="M15.1034 70.4828C16.4387 70.4828 17.7192 71.0132 18.6634 71.9573C19.6075 72.9015 20.1379 74.182 20.1379 75.5172H15.1034V70.4828Z" fill="#F9FFFF"/>
<path d="M27.6897 70.4828C27.022 70.4828 26.3818 70.748 25.9097 71.22C25.4376 71.6921 25.1724 72.3324 25.1724 73C25.1724 73.6676 25.4376 74.3079 25.9097 74.78C26.3818 75.252 27.022 75.5172 27.6897 75.5172H30.2069V70.4828H27.6897Z" fill="#F9FFFF"/>
<path d="M30.2069 70.4828H35.2414V75.5172H30.2069V70.4828Z" fill="#F9FFFF"/>
<path d="M35.2414 70.4828H40.2759V75.5172H35.2414V70.4828Z" fill="#F9FFFF"/>
<path d="M40.2759 70.4828H45.3103V75.5172H40.2759V70.4828Z" fill="#F9FFFF"/>
<path d="M45.3103 70.4828H50.3448V75.5172H45.3103V70.4828Z" fill="#F9FFFF"/>
<path d="M50.3448 70.4828H55.3793V75.5172H50.3448V70.4828Z" fill="#F9FFFF"/>
<path d="M55.3793 70.4828C56.7145 70.4828 57.9951 71.0132 58.9392 71.9573C59.8834 72.9015 60.4138 74.182 60.4138 75.5172H55.3793V70.4828Z" fill="#F9FFFF"/>
<path d="M90.6207 73C90.6207 72.3324 90.8859 71.6921 91.358 71.22C91.83 70.748 92.4703 70.4828 93.1379 70.4828C93.8055 70.4828 94.4458 70.748 94.9179 71.22C95.39 71.6921 95.6552 72.3324 95.6552 73V75.5172H90.6207V73Z" fill="#F9FFFF"/>
<path d="M100.69 70.4828H105.724V75.5172H100.69V70.4828Z" fill="#F9FFFF"/>
<path d="M105.724 75.5172C107.059 75.5172 108.34 74.9868 109.284 74.0427C110.228 73.0985 110.759 71.818 110.759 70.4828H105.724V75.5172Z" fill="#F9FFFF"/>
<path d="M115.793 70.4828H120.828V75.5172H115.793V70.4828Z" fill="#F9FFFF"/>
<path d="M130.897 73C130.897 73.6676 131.162 74.3079 131.634 74.78C132.106 75.252 132.746 75.5172 133.414 75.5172C134.081 75.5172 134.722 75.252 135.194 74.78C135.666 74.3079 135.931 73.6676 135.931 73V70.4828H130.897V73Z" fill="#F9FFFF"/>
<path d="M10.069 75.5172C10.069 76.8525 10.5994 78.133 11.5435 79.0771C12.4877 80.0213 13.7682 80.5517 15.1034 80.5517V75.5172H10.069Z" fill="#F9FFFF"/>
<path d="M15.1034 75.5172H20.1379V80.5517H15.1034V75.5172Z" fill="#F9FFFF"/>
<path d="M20.1379 75.5172C21.4732 75.5172 22.7537 76.0477 23.6978 76.9918C24.642 77.936 25.1724 79.2165 25.1724 80.5517H20.1379V75.5172Z" fill="#F9FFFF"/>
<path d="M45.3103 78.0345C45.3103 78.7021 45.5756 79.3424 46.0476 79.8144C46.5197 80.2865 47.16 80.5517 47.8276 80.5517C48.4952 80.5517 49.1355 80.2865 49.6075 79.8144C50.0796 79.3424 50.3448 78.7021 50.3448 78.0345V75.5172H45.3103V78.0345Z" fill="#F9FFFF"/>
<path d="M55.3793 75.5172H60.4138V80.5517H55.3793V75.5172Z" fill="#F9FFFF"/>
<path d="M60.4138 75.5172H65.4483V80.5517H60.4138V75.5172Z" fill="#F9FFFF"/>
<path d="M65.4483 75.5172C66.7835 75.5172 68.064 76.0477 69.0082 76.9918C69.9523 77.936 70.4828 79.2165 70.4828 80.5517H65.4483V75.5172Z" fill="#F9FFFF"/>
<path d="M85.5862 80.5517C85.5862 79.2165 86.1166 77.936 87.0608 76.9918C88.0049 76.0477 89.2855 75.5172 90.6207 75.5172V80.5517H85.5862Z" fill="#F9FFFF"/>
<path d="M90.6207 75.5172H95.6552V80.5517H90.6207V75.5172Z" fill="#F9FFFF"/>
<path d="M95.6552 75.5172H100.69V80.5517H95.6552V75.5172Z" fill="#F9FFFF"/>
<path d="M100.69 80.5517C102.025 80.5517 103.305 80.0213 104.25 79.0771C105.194 78.133 105.724 76.8525 105.724 75.5172H100.69V80.5517Z" fill="#F9FFFF"/>
<path d="M113.276 75.5172C112.608 75.5172 111.968 75.7824 111.496 76.2545C111.024 76.7266 110.759 77.3669 110.759 78.0345C110.759 78.7021 111.024 79.3424 111.496 79.8144C111.968 80.2865 112.608 80.5517 113.276 80.5517H115.793V75.5172H113.276Z" fill="#F9FFFF"/>
<path d="M115.793 80.5517C117.128 80.5517 118.409 80.0213 119.353 79.0771C120.297 78.133 120.828 76.8525 120.828 75.5172H115.793V80.5517Z" fill="#F9FFFF"/>
<path d="M128.379 75.5172C129.047 75.5172 129.687 75.7824 130.159 76.2545C130.631 76.7266 130.897 77.3669 130.897 78.0345C130.897 78.7021 130.631 79.3424 130.159 79.8144C129.687 80.2865 129.047 80.5517 128.379 80.5517C127.712 80.5517 127.071 80.2865 126.599 79.8144C126.127 79.3424 125.862 78.7021 125.862 78.0345C125.862 77.3669 126.127 76.7266 126.599 76.2545C127.071 75.7824 127.712 75.5172 128.379 75.5172Z" fill="#F9FFFF"/>
<path d="M0 83.069C0 82.4013 0.265209 81.7611 0.737283 81.289C1.20936 80.8169 1.84963 80.5517 2.51724 80.5517C3.18486 80.5517 3.82513 80.8169 4.2972 81.289C4.76927 81.7611 5.03448 82.4013 5.03448 83.069V85.5862H0V83.069Z" fill="#F9FFFF"/>
<path d="M20.1379 80.5517H25.1724V85.5862H20.1379V80.5517Z" fill="#F9FFFF"/>
<path d="M32.7241 80.5517C32.0565 80.5517 31.4163 80.8169 30.9442 81.289C30.4721 81.7611 30.2069 82.4013 30.2069 83.069C30.2069 83.7366 30.4721 84.3768 30.9442 84.8489C31.4163 85.321 32.0565 85.5862 32.7241 85.5862H35.2414V80.5517H32.7241Z" fill="#F9FFFF"/>
<path d="M35.2414 80.5517C36.5766 80.5517 37.8571 81.0821 38.8013 82.0263C39.7454 82.9704 40.2759 84.251 40.2759 85.5862H35.2414V80.5517Z" fill="#F9FFFF"/>
<path d="M55.3793 80.5517H60.4138V85.5862H55.3793V80.5517Z" fill="#F9FFFF"/>
<path d="M60.4138 80.5517H65.4483V85.5862H60.4138V80.5517Z" fill="#F9FFFF"/>
<path d="M65.4483 80.5517H70.4828V85.5862H65.4483V80.5517Z" fill="#F9FFFF"/>
<path d="M78.0345 80.5517C77.3669 80.5517 76.7266 80.8169 76.2545 81.289C75.7824 81.7611 75.5172 82.4013 75.5172 83.069C75.5172 83.7366 75.7824 84.3768 76.2545 84.8489C76.7266 85.321 77.3669 85.5862 78.0345 85.5862H80.5517V80.5517H78.0345Z" fill="#F9FFFF"/>
<path d="M80.5517 80.5517H85.5862V85.5862H80.5517V80.5517Z" fill="#F9FFFF"/>
<path d="M85.5862 85.5862C86.9214 85.5862 88.202 85.0558 89.1461 84.1116C90.0903 83.1675 90.6207 81.8869 90.6207 80.5517H85.5862V85.5862Z" fill="#F9FFFF"/>
<path d="M133.414 80.5517C132.746 80.5517 132.106 80.8169 131.634 81.289C131.162 81.7611 130.897 82.4013 130.897 83.069C130.897 83.7366 131.162 84.3768 131.634 84.8489C132.106 85.321 132.746 85.5862 133.414 85.5862H135.931V80.5517H133.414Z" fill="#F9FFFF"/>
<path d="M138.448 80.5517C139.116 80.5517 139.756 80.8169 140.228 81.289C140.7 81.7611 140.966 82.4013 140.966 83.069C140.966 83.7366 140.7 84.3768 140.228 84.8489C139.756 85.321 139.116 85.5862 138.448 85.5862H135.931V80.5517H138.448Z" fill="#F9FFFF"/>
<path d="M0 85.5862H5.03448V90.6207H0V85.5862Z" fill="#F9FFFF"/>
<path d="M7.55172 85.5862C8.21934 85.5862 8.85961 85.8514 9.33168 86.3235C9.80376 86.7956 10.069 87.4358 10.069 88.1034C10.069 88.7711 9.80376 89.4113 9.33168 89.8834C8.85961 90.3555 8.21934 90.6207 7.55172 90.6207H5.03448V85.5862H7.55172Z" fill="#F9FFFF"/>
<path d="M17.6207 85.5862C16.9531 85.5862 16.3128 85.8514 15.8407 86.3235C15.3687 86.7956 15.1034 87.4358 15.1034 88.1034C15.1034 88.7711 15.3687 89.4113 15.8407 89.8834C16.3128 90.3555 16.9531 90.6207 17.6207 90.6207H20.1379V85.5862H17.6207Z" fill="#F9FFFF"/>
<path d="M20.1379 85.5862H25.1724V90.6207H20.1379V85.5862Z" fill="#F9FFFF"/>
<path d="M27.6897 85.5862C28.3573 85.5862 28.9975 85.8514 29.4696 86.3235C29.9417 86.7956 30.2069 87.4358 30.2069 88.1034C30.2069 88.7711 29.9417 89.4113 29.4696 89.8834C28.9975 90.3555 28.3573 90.6207 27.6897 90.6207H25.1724V85.5862H27.6897Z" fill="#F9FFFF"/>
<path d="M35.2414 85.5862H40.2759V90.6207H35.2414V85.5862Z" fill="#F9FFFF"/>
<path d="M47.8276 85.5862C48.4952 85.5862 49.1355 85.8514 49.6075 86.3235C50.0796 86.7956 50.3448 87.4358 50.3448 88.1034C50.3448 88.7711 50.0796 89.4113 49.6075 89.8834C49.1355 90.3555 48.4952 90.6207 47.8276 90.6207C47.16 90.6207 46.5197 90.3555 46.0476 89.8834C45.5756 89.4113 45.3103 88.7711 45.3103 88.1034C45.3103 87.4358 45.5756 86.7956 46.0476 86.3235C46.5197 85.8514 47.16 85.5862 47.8276 85.5862Z" fill="#F9FFFF"/>
<path d="M55.3793 85.5862C55.3793 86.9214 55.9097 88.202 56.8539 89.1461C57.798 90.0903 59.0786 90.6207 60.4138 90.6207V85.5862H55.3793Z" fill="#F9FFFF"/>
<path d="M60.4138 85.5862H65.4483V90.6207H60.4138V85.5862Z" fill="#F9FFFF"/>
<path d="M65.4483 85.5862H70.4828V90.6207H65.4483V85.5862Z" fill="#F9FFFF"/>
<path d="M80.5517 85.5862H85.5862V90.6207H80.5517V85.5862Z" fill="#F9FFFF"/>
<path d="M93.1379 85.5862C93.8055 85.5862 94.4458 85.8514 94.9179 86.3235C95.39 86.7956 95.6552 87.4358 95.6552 88.1034C95.6552 88.7711 95.39 89.4113 94.9179 89.8834C94.4458 90.3555 93.8055 90.6207 93.1379 90.6207C92.4703 90.6207 91.83 90.3555 91.358 89.8834C90.8859 89.4113 90.6207 88.7711 90.6207 88.1034C90.6207 87.4358 90.8859 86.7956 91.358 86.3235C91.83 85.8514 92.4703 85.5862 93.1379 85.5862Z" fill="#F9FFFF"/>
<path d="M103.207 85.5862C102.539 85.5862 101.899 85.8514 101.427 86.3235C100.955 86.7956 100.69 87.4358 100.69 88.1034C100.69 88.7711 100.955 89.4113 101.427 89.8834C101.899 90.3555 102.539 90.6207 103.207 90.6207H105.724V85.5862H103.207Z" fill="#F9FFFF"/>
<path d="M105.724 85.5862H110.759V90.6207H105.724V85.5862Z" fill="#F9FFFF"/>
<path d="M110.759 85.5862H115.793V90.6207H110.759V85.5862Z" fill="#F9FFFF"/>
<path d="M115.793 85.5862H120.828V90.6207H115.793V85.5862Z" fill="#F9FFFF"/>
<path d="M120.828 85.5862H125.862V90.6207H120.828V85.5862Z" fill="#F9FFFF"/>
<path d="M125.862 85.5862C127.197 85.5862 128.478 86.1166 129.422 87.0608C130.366 88.0049 130.897 89.2855 130.897 90.6207H125.862V85.5862Z" fill="#F9FFFF"/>
<path d="M143.483 85.5862C144.15 85.5862 144.791 85.8514 145.263 86.3235C145.735 86.7956 146 87.4358 146 88.1034C146 88.7711 145.735 89.4113 145.263 89.8834C144.791 90.3555 144.15 90.6207 143.483 90.6207C142.815 90.6207 142.175 90.3555 141.703 89.8834C141.231 89.4113 140.966 88.7711 140.966 88.1034C140.966 87.4358 141.231 86.7956 141.703 86.3235C142.175 85.8514 142.815 85.5862 143.483 85.5862Z" fill="#F9FFFF"/>
<path d="M0 90.6207H5.03448V95.6552H0V90.6207Z" fill="#F9FFFF"/>
<path d="M12.5862 90.6207C13.2538 90.6207 13.8941 90.8859 14.3662 91.358C14.8382 91.83 15.1034 92.4703 15.1034 93.1379C15.1034 93.8055 14.8382 94.4458 14.3662 94.9179C13.8941 95.39 13.2538 95.6552 12.5862 95.6552C11.9186 95.6552 11.2783 95.39 10.8062 94.9179C10.3342 94.4458 10.069 93.8055 10.069 93.1379C10.069 92.4703 10.3342 91.83 10.8062 91.358C11.2783 90.8859 11.9186 90.6207 12.5862 90.6207Z" fill="#F9FFFF"/>
<path d="M20.1379 90.6207H25.1724V95.6552H20.1379V90.6207Z" fill="#F9FFFF"/>
<path d="M32.7241 90.6207C32.0565 90.6207 31.4163 90.8859 30.9442 91.358C30.4721 91.83 30.2069 92.4703 30.2069 93.1379C30.2069 93.8055 30.4721 94.4458 30.9442 94.9179C31.4163 95.39 32.0565 95.6552 32.7241 95.6552H35.2414V90.6207H32.7241Z" fill="#F9FFFF"/>
<path d="M35.2414 90.6207H40.2759V95.6552H35.2414V90.6207Z" fill="#F9FFFF"/>
<path d="M52.8621 90.6207C53.5297 90.6207 54.17 90.8859 54.642 91.358C55.1141 91.83 55.3793 92.4703 55.3793 93.1379C55.3793 93.8055 55.1141 94.4458 54.642 94.9179C54.17 95.39 53.5297 95.6552 52.8621 95.6552C52.1945 95.6552 51.5542 95.39 51.0821 94.9179C50.61 94.4458 50.3448 93.8055 50.3448 93.1379C50.3448 92.4703 50.61 91.83 51.0821 91.358C51.5542 90.8859 52.1945 90.6207 52.8621 90.6207Z" fill="#F9FFFF"/>
<path d="M65.4483 90.6207H70.4828V95.6552H65.4483V90.6207Z" fill="#F9FFFF"/>
<path d="M73 90.6207C73.6676 90.6207 74.3079 90.8859 74.78 91.358C75.252 91.83 75.5172 92.4703 75.5172 93.1379C75.5172 93.8055 75.252 94.4458 74.78 94.9179C74.3079 95.39 73.6676 95.6552 73 95.6552H70.4828V90.6207H73Z" fill="#F9FFFF"/>
<path d="M80.5517 90.6207C80.5517 91.9559 81.0821 93.2365 82.0263 94.1806C82.9704 95.1247 84.251 95.6552 85.5862 95.6552V90.6207H80.5517Z" fill="#F9FFFF"/>
<path d="M85.5862 90.6207C86.9214 90.6207 88.202 91.1511 89.1461 92.0953C90.0903 93.0394 90.6207 94.3199 90.6207 95.6552H85.5862V90.6207Z" fill="#F9FFFF"/>
<path d="M95.6552 93.1379C95.6552 92.4703 95.9204 91.83 96.3924 91.358C96.8645 90.8859 97.5048 90.6207 98.1724 90.6207C98.84 90.6207 99.4803 90.8859 99.9524 91.358C100.424 91.83 100.69 92.4703 100.69 93.1379V95.6552H95.6552V93.1379Z" fill="#F9FFFF"/>
<path d="M105.724 93.1379C105.724 93.8055 105.989 94.4458 106.461 94.9179C106.933 95.39 107.574 95.6552 108.241 95.6552C108.909 95.6552 109.549 95.39 110.021 94.9179C110.493 94.4458 110.759 93.8055 110.759 93.1379V90.6207H105.724V93.1379Z" fill="#F9FFFF"/>
<path d="M125.862 90.6207H130.897V95.6552H125.862V90.6207Z" fill="#F9FFFF"/>
<path d="M0 95.6552H5.03448V100.69H0V95.6552Z" fill="#F9FFFF"/>
<path d="M20.1379 98.1724C20.1379 98.84 20.4031 99.4803 20.8752 99.9524C21.3473 100.424 21.9876 100.69 22.6552 100.69C23.3228 100.69 23.9631 100.424 24.4351 99.9524C24.9072 99.4803 25.1724 98.84 25.1724 98.1724V95.6552H20.1379V98.1724Z" fill="#F9FFFF"/>
<path d="M35.2414 98.1724C35.2414 98.84 35.5066 99.4803 35.9787 99.9524C36.4507 100.424 37.091 100.69 37.7586 100.69C38.4262 100.69 39.0665 100.424 39.5386 99.9524C40.0107 99.4803 40.2759 98.84 40.2759 98.1724V95.6552H35.2414V98.1724Z" fill="#F9FFFF"/>
<path d="M55.3793 98.1724C55.3793 97.5048 55.6445 96.8645 56.1166 96.3924C56.5887 95.9204 57.2289 95.6552 57.8965 95.6552C58.5642 95.6552 59.2044 95.9204 59.6765 96.3924C60.1486 96.8645 60.4138 97.5048 60.4138 98.1724V100.69H55.3793V98.1724Z" fill="#F9FFFF"/>
<path d="M65.4483 95.6552H70.4828V100.69H65.4483V95.6552Z" fill="#F9FFFF"/>
<path d="M85.5862 95.6552C85.5862 96.9904 86.1166 98.2709 87.0608 99.2151C88.0049 100.159 89.2855 100.69 90.6207 100.69V95.6552H85.5862Z" fill="#F9FFFF"/>
<path d="M90.6207 95.6552H95.6552V100.69H90.6207V95.6552Z" fill="#F9FFFF"/>
<path d="M95.6552 95.6552H100.69V100.69H95.6552V95.6552Z" fill="#F9FFFF"/>
<path d="M100.69 95.6552C102.025 95.6552 103.305 96.1856 104.25 97.1297C105.194 98.0739 105.724 99.3544 105.724 100.69H100.69V95.6552Z" fill="#F9FFFF"/>
<path d="M115.793 100.69C115.793 99.3544 116.324 98.0739 117.268 97.1297C118.212 96.1856 119.492 95.6552 120.828 95.6552V100.69H115.793Z" fill="#F9FFFF"/>
<path d="M120.828 95.6552H125.862V100.69H120.828V95.6552Z" fill="#F9FFFF"/>
<path d="M125.862 95.6552H130.897V100.69H125.862V95.6552Z" fill="#F9FFFF"/>
<path d="M138.448 95.6552C139.116 95.6552 139.756 95.9204 140.228 96.3924C140.7 96.8645 140.966 97.5048 140.966 98.1724C140.966 98.84 140.7 99.4803 140.228 99.9524C139.756 100.424 139.116 100.69 138.448 100.69C137.781 100.69 137.14 100.424 136.668 99.9524C136.196 99.4803 135.931 98.84 135.931 98.1724C135.931 97.5048 136.196 96.8645 136.668 96.3924C137.14 95.9204 137.781 95.6552 138.448 95.6552Z" fill="#F9FFFF"/>
<path d="M0 103.207C0 103.875 0.265209 104.515 0.737283 104.987C1.20936 105.459 1.84963 105.724 2.51724 105.724C3.18486 105.724 3.82513 105.459 4.2972 104.987C4.76927 104.515 5.03448 103.875 5.03448 103.207V100.69H0V103.207Z" fill="#F9FFFF"/>
<path d="M17.6207 100.69C18.2883 100.69 18.9286 100.955 19.4006 101.427C19.8727 101.899 20.1379 102.539 20.1379 103.207C20.1379 103.875 19.8727 104.515 19.4006 104.987C18.9286 105.459 18.2883 105.724 17.6207 105.724C16.9531 105.724 16.3128 105.459 15.8407 104.987C15.3687 104.515 15.1034 103.875 15.1034 103.207C15.1034 102.539 15.3687 101.899 15.8407 101.427C16.3128 100.955 16.9531 100.69 17.6207 100.69Z" fill="#F9FFFF"/>
<path d="M27.6897 100.69C27.022 100.69 26.3818 100.955 25.9097 101.427C25.4376 101.899 25.1724 102.539 25.1724 103.207C25.1724 103.875 25.4376 104.515 25.9097 104.987C26.3818 105.459 27.022 105.724 27.6897 105.724H30.2069V100.69H27.6897Z" fill="#F9FFFF"/>
<path d="M32.7241 100.69C33.3918 100.69 34.032 100.955 34.5041 101.427C34.9762 101.899 35.2414 102.539 35.2414 103.207C35.2414 103.875 34.9762 104.515 34.5041 104.987C34.032 105.459 33.3918 105.724 32.7241 105.724H30.2069V100.69H32.7241Z" fill="#F9FFFF"/>
<path d="M55.3793 100.69H60.4138V105.724H55.3793V100.69Z" fill="#F9FFFF"/>
<path d="M65.4483 100.69H70.4828V105.724H65.4483V100.69Z" fill="#F9FFFF"/>
<path d="M70.4828 100.69H75.5172V105.724H70.4828V100.69Z" fill="#F9FFFF"/>
<path d="M75.5172 100.69C76.8525 100.69 78.133 101.22 79.0771 102.164C80.0213 103.108 80.5517 104.389 80.5517 105.724H75.5172V100.69Z" fill="#F9FFFF"/>
<path d="M90.6207 100.69C90.6207 102.025 91.1511 103.305 92.0953 104.25C93.0394 105.194 94.3199 105.724 95.6552 105.724V100.69H90.6207Z" fill="#F9FFFF"/>
<path d="M95.6552 100.69H100.69V105.724H95.6552V100.69Z" fill="#F9FFFF"/>
<path d="M100.69 100.69H105.724V105.724H100.69V100.69Z" fill="#F9FFFF"/>
<path d="M105.724 100.69H110.759V105.724H105.724V100.69Z" fill="#F9FFFF"/>
<path d="M110.759 100.69H115.793V105.724H110.759V100.69Z" fill="#F9FFFF"/>
<path d="M115.793 100.69H120.828V105.724H115.793V100.69Z" fill="#F9FFFF"/>
<path d="M120.828 100.69H125.862V105.724H120.828V100.69Z" fill="#F9FFFF"/>
<path d="M125.862 100.69H130.897V105.724H125.862V100.69Z" fill="#F9FFFF"/>
<path d="M130.897 100.69C132.232 100.69 133.512 101.22 134.456 102.164C135.401 103.108 135.931 104.389 135.931 105.724H130.897V100.69Z" fill="#F9FFFF"/>
<path d="M42.7931 105.724C42.1255 105.724 41.4852 105.989 41.0131 106.461C40.5411 106.933 40.2759 107.574 40.2759 108.241C40.2759 108.909 40.5411 109.549 41.0131 110.021C41.4852 110.493 42.1255 110.759 42.7931 110.759H45.3103V105.724H42.7931Z" fill="#F9FFFF"/>
<path d="M45.3103 105.724H50.3448V110.759H45.3103V105.724Z" fill="#F9FFFF"/>
<path d="M50.3448 105.724H55.3793V110.759H50.3448V105.724Z" fill="#F9FFFF"/>
<path d="M55.3793 105.724H60.4138V110.759H55.3793V105.724Z" fill="#F9FFFF"/>
<path d="M65.4483 105.724C65.4483 107.059 65.9787 108.34 66.9228 109.284C67.867 110.228 69.1475 110.759 70.4828 110.759V105.724H65.4483Z" fill="#F9FFFF"/>
<path d="M70.4828 105.724H75.5172V110.759H70.4828V105.724Z" fill="#F9FFFF"/>
<path d="M75.5172 105.724H80.5517V110.759H75.5172V105.724Z" fill="#F9FFFF"/>
<path d="M80.5517 105.724H85.5862V110.759H80.5517V105.724Z" fill="#F9FFFF"/>
<path d="M88.1034 105.724C88.7711 105.724 89.4113 105.989 89.8834 106.461C90.3555 106.933 90.6207 107.574 90.6207 108.241C90.6207 108.909 90.3555 109.549 89.8834 110.021C89.4113 110.493 88.7711 110.759 88.1034 110.759H85.5862V105.724H88.1034Z" fill="#F9FFFF"/>
<path d="M100.69 105.724H105.724V110.759H100.69V105.724Z" fill="#F9FFFF"/>
<path d="M120.828 105.724H125.862V110.759H120.828V105.724Z" fill="#F9FFFF"/>
<path d="M125.862 105.724H130.897V110.759H125.862V105.724Z" fill="#F9FFFF"/>
<path d="M130.897 105.724H135.931V110.759H130.897V105.724Z" fill="#F9FFFF"/>
<path d="M135.931 105.724H140.966V110.759H135.931V105.724Z" fill="#F9FFFF"/>
<path d="M143.483 105.724C144.15 105.724 144.791 105.989 145.263 106.461C145.735 106.933 146 107.574 146 108.241C146 108.909 145.735 109.549 145.263 110.021C144.791 110.493 144.15 110.759 143.483 110.759H140.966V105.724H143.483Z" fill="#F9FFFF"/>
<path d="M0 115.793C0 114.458 0.530417 113.177 1.47457 112.233C2.41871 111.289 3.69925 110.759 5.03448 110.759V115.793H0Z" fill="#F9FFFF"/>
<path d="M5.03448 110.759H10.069V115.793H5.03448V110.759Z" fill="#F9FFFF"/>
<path d="M10.069 110.759H15.1034V115.793H10.069V110.759Z" fill="#F9FFFF"/>
<path d="M15.1034 110.759H20.1379V115.793H15.1034V110.759Z" fill="#F9FFFF"/>
<path d="M20.1379 110.759H25.1724V115.793H20.1379V110.759Z" fill="#F9FFFF"/>
<path d="M25.1724 110.759H30.2069V115.793H25.1724V110.759Z" fill="#F9FFFF"/>
<path d="M30.2069 110.759C31.5421 110.759 32.8227 111.289 33.7668 112.233C34.711 113.177 35.2414 114.458 35.2414 115.793H30.2069V110.759Z" fill="#F9FFFF"/>
<path d="M45.3103 110.759H50.3448V115.793H45.3103V110.759Z" fill="#F9FFFF"/>
<path d="M50.3448 110.759H55.3793V115.793H50.3448V110.759Z" fill="#F9FFFF"/>
<path d="M55.3793 110.759H60.4138V115.793H55.3793V110.759Z" fill="#F9FFFF"/>
<path d="M60.4138 110.759C61.749 110.759 63.0296 111.289 63.9737 112.233C64.9179 113.177 65.4483 114.458 65.4483 115.793H60.4138V110.759Z" fill="#F9FFFF"/>
<path d="M70.4828 110.759H75.5172V115.793H70.4828V110.759Z" fill="#F9FFFF"/>
<path d="M75.5172 115.793C76.8525 115.793 78.133 115.263 79.0771 114.319C80.0213 113.374 80.5517 112.094 80.5517 110.759H75.5172V115.793Z" fill="#F9FFFF"/>
<path d="M93.1379 110.759C92.4703 110.759 91.83 111.024 91.358 111.496C90.8859 111.968 90.6207 112.608 90.6207 113.276C90.6207 113.943 90.8859 114.584 91.358 115.056C91.83 115.528 92.4703 115.793 93.1379 115.793H95.6552V110.759H93.1379Z" fill="#F9FFFF"/>
<path d="M95.6552 110.759H100.69V115.793H95.6552V110.759Z" fill="#F9FFFF"/>
<path d="M100.69 110.759H105.724V115.793H100.69V110.759Z" fill="#F9FFFF"/>
<path d="M113.276 110.759C113.943 110.759 114.584 111.024 115.056 111.496C115.528 111.968 115.793 112.608 115.793 113.276C115.793 113.943 115.528 114.584 115.056 115.056C114.584 115.528 113.943 115.793 113.276 115.793C112.608 115.793 111.968 115.528 111.496 115.056C111.024 114.584 110.759 113.943 110.759 113.276C110.759 112.608 111.024 111.968 111.496 111.496C111.968 111.024 112.608 110.759 113.276 110.759Z" fill="#F9FFFF"/>
<path d="M120.828 110.759H125.862V115.793H120.828V110.759Z" fill="#F9FFFF"/>
<path d="M125.862 110.759H130.897V115.793H125.862V110.759Z" fill="#F9FFFF"/>
<path d="M0 115.793H5.03448V120.828H0V115.793Z" fill="#F9FFFF"/>
<path d="M30.2069 115.793H35.2414V120.828H30.2069V115.793Z" fill="#F9FFFF"/>
<path d="M45.3103 115.793H50.3448V120.828H45.3103V115.793Z" fill="#F9FFFF"/>
<path d="M50.3448 120.828C51.6801 120.828 52.9606 120.297 53.9047 119.353C54.8489 118.409 55.3793 117.128 55.3793 115.793H50.3448V120.828Z" fill="#F9FFFF"/>
<path d="M60.4138 115.793C60.4138 117.128 60.9442 118.409 61.8884 119.353C62.8325 120.297 64.113 120.828 65.4483 120.828V115.793H60.4138Z" fill="#F9FFFF"/>
<path d="M65.4483 115.793H70.4828V120.828H65.4483V115.793Z" fill="#F9FFFF"/>
<path d="M70.4828 120.828C71.818 120.828 73.0985 120.297 74.0427 119.353C74.9868 118.409 75.5172 117.128 75.5172 115.793H70.4828V120.828Z" fill="#F9FFFF"/>
<path d="M80.5517 118.31C80.5517 117.643 80.8169 117.002 81.289 116.53C81.7611 116.058 82.4013 115.793 83.069 115.793C83.7366 115.793 84.3768 116.058 84.8489 116.53C85.321 117.002 85.5862 117.643 85.5862 118.31V120.828H80.5517V118.31Z" fill="#F9FFFF"/>
<path d="M95.6552 115.793C95.6552 117.128 96.1856 118.409 97.1297 119.353C98.0739 120.297 99.3544 120.828 100.69 120.828V115.793H95.6552Z" fill="#F9FFFF"/>
<path d="M100.69 115.793H105.724V120.828H100.69V115.793Z" fill="#F9FFFF"/>
<path d="M120.828 115.793H125.862V120.828H120.828V115.793Z" fill="#F9FFFF"/>
<path d="M125.862 120.828C127.197 120.828 128.478 120.297 129.422 119.353C130.366 118.409 130.897 117.128 130.897 115.793H125.862V120.828Z" fill="#F9FFFF"/>
<path d="M138.448 115.793C139.116 115.793 139.756 116.058 140.228 116.53C140.7 117.002 140.966 117.643 140.966 118.31C140.966 118.978 140.7 119.618 140.228 120.09C139.756 120.562 139.116 120.828 138.448 120.828C137.781 120.828 137.14 120.562 136.668 120.09C136.196 119.618 135.931 118.978 135.931 118.31C135.931 117.643 136.196 117.002 136.668 116.53C137.14 116.058 137.781 115.793 138.448 115.793Z" fill="#F9FFFF"/>
<path d="M0 120.828H5.03448V125.862H0V120.828Z" fill="#F9FFFF"/>
<path d="M10.069 125.862C10.069 124.527 10.5994 123.246 11.5435 122.302C12.4877 121.358 13.7682 120.828 15.1034 120.828V125.862H10.069Z" fill="#F9FFFF"/>
<path d="M15.1034 120.828H20.1379V125.862H15.1034V120.828Z" fill="#F9FFFF"/>
<path d="M20.1379 120.828C21.4732 120.828 22.7537 121.358 23.6978 122.302C24.642 123.246 25.1724 124.527 25.1724 125.862H20.1379V120.828Z" fill="#F9FFFF"/>
<path d="M30.2069 120.828H35.2414V125.862H30.2069V120.828Z" fill="#F9FFFF"/>
<path d="M40.2759 125.862C40.2759 124.527 40.8063 123.246 41.7504 122.302C42.6946 121.358 43.9751 120.828 45.3103 120.828V125.862H40.2759Z" fill="#F9FFFF"/>
<path d="M45.3103 125.862C46.6456 125.862 47.9261 125.332 48.8703 124.387C49.8144 123.443 50.3448 122.163 50.3448 120.828H45.3103V125.862Z" fill="#F9FFFF"/>
<path d="M57.8965 120.828C58.5642 120.828 59.2044 121.093 59.6765 121.565C60.1486 122.037 60.4138 122.677 60.4138 123.345C60.4138 124.012 60.1486 124.653 59.6765 125.125C59.2044 125.597 58.5642 125.862 57.8965 125.862C57.2289 125.862 56.5887 125.597 56.1166 125.125C55.6445 124.653 55.3793 124.012 55.3793 123.345C55.3793 122.677 55.6445 122.037 56.1166 121.565C56.5887 121.093 57.2289 120.828 57.8965 120.828Z" fill="#F9FFFF"/>
<path d="M80.5517 120.828H85.5862V125.862H80.5517V120.828Z" fill="#F9FFFF"/>
<path d="M90.6207 123.345C90.6207 122.677 90.8859 122.037 91.358 121.565C91.83 121.093 92.4703 120.828 93.1379 120.828C93.8055 120.828 94.4458 121.093 94.9179 121.565C95.39 122.037 95.6552 122.677 95.6552 123.345V125.862H90.6207V123.345Z" fill="#F9FFFF"/>
<path d="M100.69 120.828H105.724V125.862H100.69V120.828Z" fill="#F9FFFF"/>
<path d="M105.724 120.828H110.759V125.862H105.724V120.828Z" fill="#F9FFFF"/>
<path d="M110.759 120.828H115.793V125.862H110.759V120.828Z" fill="#F9FFFF"/>
<path d="M115.793 120.828H120.828V125.862H115.793V120.828Z" fill="#F9FFFF"/>
<path d="M120.828 125.862C122.163 125.862 123.443 125.332 124.387 124.387C125.332 123.443 125.862 122.163 125.862 120.828H120.828V125.862Z" fill="#F9FFFF"/>
<path d="M133.414 120.828C134.081 120.828 134.722 121.093 135.194 121.565C135.666 122.037 135.931 122.677 135.931 123.345C135.931 124.012 135.666 124.653 135.194 125.125C134.722 125.597 134.081 125.862 133.414 125.862C132.746 125.862 132.106 125.597 131.634 125.125C131.162 124.653 130.897 124.012 130.897 123.345C130.897 122.677 131.162 122.037 131.634 121.565C132.106 121.093 132.746 120.828 133.414 120.828Z" fill="#F9FFFF"/>
<path d="M143.483 120.828C144.15 120.828 144.791 121.093 145.263 121.565C145.735 122.037 146 122.677 146 123.345C146 124.012 145.735 124.653 145.263 125.125C144.791 125.597 144.15 125.862 143.483 125.862C142.815 125.862 142.175 125.597 141.703 125.125C141.231 124.653 140.966 124.012 140.966 123.345C140.966 122.677 141.231 122.037 141.703 121.565C142.175 121.093 142.815 120.828 143.483 120.828Z" fill="#F9FFFF"/>
<path d="M0 125.862H5.03448V130.897H0V125.862Z" fill="#F9FFFF"/>
<path d="M10.069 125.862H15.1034V130.897H10.069V125.862Z" fill="#F9FFFF"/>
<path d="M15.1034 125.862H20.1379V130.897H15.1034V125.862Z" fill="#F9FFFF"/>
<path d="M20.1379 125.862H25.1724V130.897H20.1379V125.862Z" fill="#F9FFFF"/>
<path d="M30.2069 125.862H35.2414V130.897H30.2069V125.862Z" fill="#F9FFFF"/>
<path d="M40.2759 125.862H45.3103V130.897H40.2759V125.862Z" fill="#F9FFFF"/>
<path d="M78.0345 125.862C77.3669 125.862 76.7266 126.127 76.2545 126.599C75.7824 127.071 75.5172 127.712 75.5172 128.379C75.5172 129.047 75.7824 129.687 76.2545 130.159C76.7266 130.631 77.3669 130.897 78.0345 130.897H80.5517V125.862H78.0345Z" fill="#F9FFFF"/>
<path d="M80.5517 130.897C81.8869 130.897 83.1675 130.366 84.1116 129.422C85.0558 128.478 85.5862 127.197 85.5862 125.862H80.5517V130.897Z" fill="#F9FFFF"/>
<path d="M90.6207 128.379C90.6207 129.047 90.8859 129.687 91.358 130.159C91.83 130.631 92.4703 130.897 93.1379 130.897C93.8055 130.897 94.4458 130.631 94.9179 130.159C95.39 129.687 95.6552 129.047 95.6552 128.379V125.862H90.6207V128.379Z" fill="#F9FFFF"/>
<path d="M100.69 128.379C100.69 129.047 100.955 129.687 101.427 130.159C101.899 130.631 102.539 130.897 103.207 130.897C103.875 130.897 104.515 130.631 104.987 130.159C105.459 129.687 105.724 129.047 105.724 128.379V125.862H100.69V128.379Z" fill="#F9FFFF"/>
<path d="M0 130.897H5.03448V135.931H0V130.897Z" fill="#F9FFFF"/>
<path d="M10.069 130.897C10.069 132.232 10.5994 133.512 11.5435 134.456C12.4877 135.401 13.7682 135.931 15.1034 135.931V130.897H10.069Z" fill="#F9FFFF"/>
<path d="M15.1034 130.897H20.1379V135.931H15.1034V130.897Z" fill="#F9FFFF"/>
<path d="M20.1379 135.931C21.4732 135.931 22.7537 135.401 23.6978 134.456C24.642 133.512 25.1724 132.232 25.1724 130.897H20.1379V135.931Z" fill="#F9FFFF"/>
<path d="M30.2069 130.897H35.2414V135.931H30.2069V130.897Z" fill="#F9FFFF"/>
<path d="M40.2759 130.897C40.2759 132.232 40.8063 133.512 41.7504 134.456C42.6946 135.401 43.9751 135.931 45.3103 135.931V130.897H40.2759Z" fill="#F9FFFF"/>
<path d="M45.3103 130.897C46.6456 130.897 47.9261 131.427 48.8703 132.371C49.8144 133.315 50.3448 134.596 50.3448 135.931H45.3103V130.897Z" fill="#F9FFFF"/>
<path d="M113.276 130.897C113.943 130.897 114.584 131.162 115.056 131.634C115.528 132.106 115.793 132.746 115.793 133.414C115.793 134.081 115.528 134.722 115.056 135.194C114.584 135.666 113.943 135.931 113.276 135.931C112.608 135.931 111.968 135.666 111.496 135.194C111.024 134.722 110.759 134.081 110.759 133.414C110.759 132.746 111.024 132.106 111.496 131.634C111.968 131.162 112.608 130.897 113.276 130.897Z" fill="#F9FFFF"/>
<path d="M120.828 133.414C120.828 132.746 121.093 132.106 121.565 131.634C122.037 131.162 122.677 130.897 123.345 130.897C124.012 130.897 124.653 131.162 125.125 131.634C125.597 132.106 125.862 132.746 125.862 133.414V135.931H120.828V133.414Z" fill="#F9FFFF"/>
<path d="M133.414 130.897C132.746 130.897 132.106 131.162 131.634 131.634C131.162 132.106 130.897 132.746 130.897 133.414C130.897 134.081 131.162 134.722 131.634 135.194C132.106 135.666 132.746 135.931 133.414 135.931H135.931V130.897H133.414Z" fill="#F9FFFF"/>
<path d="M135.931 130.897C137.266 130.897 138.547 131.427 139.491 132.371C140.435 133.315 140.966 134.596 140.966 135.931H135.931V130.897Z" fill="#F9FFFF"/>
<path d="M0 135.931H5.03448V140.966H0V135.931Z" fill="#F9FFFF"/>
<path d="M30.2069 135.931H35.2414V140.966H30.2069V135.931Z" fill="#F9FFFF"/>
<path d="M45.3103 135.931C45.3103 137.266 45.8408 138.547 46.7849 139.491C47.7291 140.435 49.0096 140.966 50.3448 140.966V135.931H45.3103Z" fill="#F9FFFF"/>
<path d="M50.3448 135.931C51.6801 135.931 52.9606 136.461 53.9047 137.406C54.8489 138.35 55.3793 139.63 55.3793 140.966H50.3448V135.931Z" fill="#F9FFFF"/>
<path d="M65.4483 140.966C65.4483 139.63 65.9787 138.35 66.9228 137.406C67.867 136.461 69.1475 135.931 70.4828 135.931V140.966H65.4483Z" fill="#F9FFFF"/>
<path d="M70.4828 135.931H75.5172V140.966H70.4828V135.931Z" fill="#F9FFFF"/>
<path d="M75.5172 135.931H80.5517V140.966H75.5172V135.931Z" fill="#F9FFFF"/>
<path d="M80.5517 135.931C81.8869 135.931 83.1675 136.461 84.1116 137.406C85.0558 138.35 85.5862 139.63 85.5862 140.966H80.5517V135.931Z" fill="#F9FFFF"/>
<path d="M93.1379 135.931C93.8055 135.931 94.4458 136.196 94.9179 136.668C95.39 137.14 95.6552 137.781 95.6552 138.448C95.6552 139.116 95.39 139.756 94.9179 140.228C94.4458 140.7 93.8055 140.966 93.1379 140.966C92.4703 140.966 91.83 140.7 91.358 140.228C90.8859 139.756 90.6207 139.116 90.6207 138.448C90.6207 137.781 90.8859 137.14 91.358 136.668C91.83 136.196 92.4703 135.931 93.1379 135.931Z" fill="#F9FFFF"/>
<path d="M115.793 140.966C115.793 139.63 116.324 138.35 117.268 137.406C118.212 136.461 119.492 135.931 120.828 135.931V140.966H115.793Z" fill="#F9FFFF"/>
<path d="M120.828 135.931H125.862V140.966H120.828V135.931Z" fill="#F9FFFF"/>
<path d="M125.862 135.931C127.197 135.931 128.478 136.461 129.422 137.406C130.366 138.35 130.897 139.63 130.897 140.966H125.862V135.931Z" fill="#F9FFFF"/>
<path d="M135.931 138.448C135.931 139.116 136.196 139.756 136.668 140.228C137.14 140.7 137.781 140.966 138.448 140.966C139.116 140.966 139.756 140.7 140.228 140.228C140.7 139.756 140.966 139.116 140.966 138.448V135.931H135.931V138.448Z" fill="#F9FFFF"/>
<path d="M0 140.966C0 142.301 0.530417 143.581 1.47457 144.525C2.41871 145.47 3.69925 146 5.03448 146V140.966H0Z" fill="#F9FFFF"/>
<path d="M5.03448 140.966H10.069V146H5.03448V140.966Z" fill="#F9FFFF"/>
<path d="M10.069 140.966H15.1034V146H10.069V140.966Z" fill="#F9FFFF"/>
<path d="M15.1034 140.966H20.1379V146H15.1034V140.966Z" fill="#F9FFFF"/>
<path d="M20.1379 140.966H25.1724V146H20.1379V140.966Z" fill="#F9FFFF"/>
<path d="M25.1724 140.966H30.2069V146H25.1724V140.966Z" fill="#F9FFFF"/>
<path d="M30.2069 146C31.5421 146 32.8227 145.47 33.7668 144.525C34.711 143.581 35.2414 142.301 35.2414 140.966H30.2069V146Z" fill="#F9FFFF"/>
<path d="M50.3448 140.966C50.3448 142.301 50.8752 143.581 51.8194 144.525C52.7635 145.47 54.0441 146 55.3793 146V140.966H50.3448Z" fill="#F9FFFF"/>
<path d="M55.3793 140.966H60.4138V146H55.3793V140.966Z" fill="#F9FFFF"/>
<path d="M60.4138 140.966H65.4483V146H60.4138V140.966Z" fill="#F9FFFF"/>
<path d="M65.4483 146C66.7835 146 68.064 145.47 69.0082 144.525C69.9523 143.581 70.4828 142.301 70.4828 140.966H65.4483V146Z" fill="#F9FFFF"/>
<path d="M75.5172 140.966C75.5172 142.301 76.0477 143.581 76.9918 144.525C77.936 145.47 79.2165 146 80.5517 146V140.966H75.5172Z" fill="#F9FFFF"/>
<path d="M80.5517 146C81.8869 146 83.1675 145.47 84.1116 144.525C85.0558 143.581 85.5862 142.301 85.5862 140.966H80.5517V146Z" fill="#F9FFFF"/>
<path d="M115.793 140.966C115.793 142.301 116.324 143.581 117.268 144.525C118.212 145.47 119.492 146 120.828 146V140.966H115.793Z" fill="#F9FFFF"/>
<path d="M120.828 140.966H125.862V146H120.828V140.966Z" fill="#F9FFFF"/>
<path d="M125.862 140.966H130.897V146H125.862V140.966Z" fill="#F9FFFF"/>
<path d="M133.414 140.966C134.081 140.966 134.722 141.231 135.194 141.703C135.666 142.175 135.931 142.815 135.931 143.483C135.931 144.15 135.666 144.791 135.194 145.263C134.722 145.735 134.081 146 133.414 146H130.897V140.966H133.414Z" fill="#F9FFFF"/>
</svg>
